Coordinates
version=1
nRows=10
nColumns=40
inDegrees=yes

Units are S.I. units (second, meters, Newtons, ...)
Angles are in degrees.

endheader
time	pelvis_tilt	pelvis_list	pelvis_rotation	pelvis_tx	pelvis_ty	pelvis_tz	hip_flexion_r	hip_adduction_r	hip_rotation_r	knee_angle_r	knee_angle_r_beta	ankle_angle_r	subtalar_angle_r	mtp_angle_r	hip_flexion_l	hip_adduction_l	hip_rotation_l	knee_angle_l	knee_angle_l_beta	ankle_angle_l	subtalar_angle_l	mtp_angle_l	lumbar_extension	lumbar_bending	lumbar_rotation	arm_flex_r	arm_add_r	arm_rot_r	elbow_flex_r	pro_sup_r	wrist_flex_r	wrist_dev_r	arm_flex_l	arm_add_l	arm_rot_l	elbow_flex_l	pro_sup_l	wrist_flex_l	wrist_dev_l
      1.24000000	     -6.05744406	     -4.44840687	     -2.03908519	      0.79501339	      0.93259513	      0.43241573	     29.40613259	     -6.14977099	     -6.22490445	     61.75648115	     61.75648115	      5.00725381	    -13.13819535	     -0.17638592	     16.40084708	     -4.51033593	     -9.01761392	     19.70006482	     19.70006482	     12.36322039	     -4.16652337	     -1.82104462	    -10.00644182	      5.18908936	      0.74126960	     15.43066434	    -13.57936100	     -2.25418783	     64.42651474	     42.78234989	      0.00000000	      0.00000000	      2.77351970	    -15.39512492	     -5.39661928	     59.54904400	     43.27411099	      0.00000000	      0.00000000
      1.25314286	     -6.01889998	     -4.50685815	     -2.21732557	      0.79378219	      0.93314795	      0.43230829	     30.14374085	     -6.01029075	     -6.35826186	     60.41382912	     60.41382912	      5.05367465	    -12.75024052	     -0.37510696	     15.70283193	     -4.57992618	     -9.31921808	     19.29501613	     19.29501613	     12.59578001	     -3.79040454	     -1.88045789	    -10.17066545	      5.10346008	      0.86995092	     12.97912239	    -13.95859499	     -1.96044086	     62.14325775	     42.88472911	      0.00000000	      0.00000000	      4.01399850	    -15.63560666	     -5.74734564	     60.46644971	     43.38220622	      0.00000000	      0.00000000
      1.26628571	     -6.06625991	     -4.63202003	     -2.34289535	      0.79250596	      0.93345911	      0.43217215	     30.88397646	     -5.78996429	     -6.54772714	     58.92530444	     58.92530444	      5.06045820	    -12.40371426	     -0.44522799	     15.19506883	     -4.71983453	     -9.51755134	     19.04374985	     19.04374985	     12.85429881	     -3.46453485	     -1.96824005	    -10.23399606	      5.14661235	      0.83867895	     10.61255050	    -14.23325252	     -1.70761670	     59.89501339	     42.97299398	      0.00000000	      0.00000000	      5.12284476	    -15.89928065	     -6.01147133	     61.36215711	     43.46073372	      0.00000000	      0.00000000
      1.27942857	     -6.04342903	     -4.65662920	     -2.54801617	      0.79125014	      0.93378132	      0.43227868	     31.45682200	     -5.57231579	     -6.56828837	     57.20721792	     57.20721792	      4.87036144	    -12.17291472	     -0.95898628	     14.68938342	     -4.85704856	    -10.11639315	     18.99101376	     18.99101376	     13.26767311	     -2.67687757	     -2.07182711	    -10.32744946	      4.98621272	      0.69467095	      9.51944274	    -14.03481459	     -1.44118127	     54.65594388	     43.25620292	      0.00000000	      0.00000000	      6.10080294	    -16.44673103	     -6.07500867	     62.37994891	     43.65119066	      0.00000000	      0.00000000
      1.29257143	     -6.02686035	     -4.72579004	     -2.72065408	      0.79005751	      0.93402577	      0.43232702	     31.90531843	     -5.34576962	     -6.69490672	     55.28418785	     55.28418785	      4.88754227	    -11.66235705	     -0.95408516	     14.13411251	     -4.93370604	    -10.30124187	     18.78284004	     18.78284004	     13.56836460	     -2.51487345	     -2.02081411	    -10.48590323	      4.94875665	      0.85191851	      7.42992953	    -14.27653487	     -1.16824186	     52.09770284	     43.37176369	      0.00000000	      0.00000000	      7.20417840	    -16.61167673	     -6.48657876	     63.52583791	     43.77139849	      0.00000000	      0.00000000
      1.30571429	     -6.06421014	     -4.75931155	     -2.88822924	      0.78887114	      0.93413157	      0.43251941	     32.29072048	     -5.11065050	     -6.79398185	     53.10160898	     53.10160898	      4.80611492	    -11.19331071	     -1.17812638	     13.70190230	     -5.03283818	    -10.67843576	     18.70792281	     18.70792281	     14.00336030	     -2.02616635	     -1.80086967	    -10.47856583	      4.86940920	      0.43179730	      6.63773924	    -13.91817951	     -0.94653189	     46.94041968	     43.67640331	      0.00000000	      0.00000000	      7.88475092	    -17.08191556	     -6.92967961	     64.57418462	     44.03051502	      0.00000000	      0.00000000
      1.31885714	     -6.04219682	     -4.77016839	     -3.06203930	      0.78775706	      0.93420992	      0.43276742	     32.49328870	     -4.88957080	     -6.89788777	     50.69566465	     50.69566465	      4.89829854	    -10.45826345	     -1.04172284	     13.18234971	     -5.04714660	    -10.81933267	     18.56210732	     18.56210732	     14.28146833	     -1.98344460	     -1.77315667	    -10.63186677	      4.78788891	      0.64899623	      4.51026684	    -14.11870652	     -0.74558725	     44.92752938	     43.76322397	      0.00000000	      0.00000000	      8.96697058	    -17.16957211	     -7.38849236	     65.70578149	     44.13860442	      0.00000000	      0.00000000
      1.33200000	     -6.02188205	     -4.75123420	     -3.24273799	      0.78671291	      0.93415882	      0.43313103	     32.56544692	     -4.67121513	     -7.00521499	     48.04656596	     48.04656596	      5.08483798	     -9.58999531	     -0.99650122	     12.66369892	     -5.04617204	    -11.04947636	     18.41551407	     18.41551407	     14.56868048	     -1.87656938	     -1.71451598	    -10.77924075	      4.69254186	      0.96813069	      2.64742579	    -14.23460033	     -0.58531466	     42.16846153	     43.88908067	      0.00000000	      0.00000000	     10.08884588	    -17.13277566	     -7.78643574	     66.91443831	     44.25398386	      0.00000000	      0.00000000
      1.34514286	     -6.10699601	     -4.65628472	     -3.40510482	      0.78558975	      0.93395273	      0.43364601	     32.64821424	     -4.49407564	     -7.12350239	     45.12861925	     45.12861925	      4.85910902	     -8.78080650	     -1.31844124	     12.30649769	     -4.97830755	    -11.21916541	     18.35692626	     18.35692626	     15.00713659	     -1.70482245	     -1.41306817	    -10.67356832	      4.47048364	      0.37606005	      2.20643247	    -13.66815418	     -0.88096130	     37.05701241	     44.23098927	      0.00000000	      0.00000000	     10.47172988	    -17.59248366	     -8.56384122	     68.02105684	     44.55225234	      0.00000000	      0.00000000
      1.35828571	     -6.12199040	     -4.59400305	     -3.55221954	      0.78463484	      0.93369974	      0.43422499	     32.50272784	     -4.28040371	     -7.33269954	     42.02600458	     42.02600458	      4.95312359	     -7.62110313	     -1.08895359	     11.83037237	     -4.91292183	    -11.30000733	     18.20915372	     18.20915372	     15.26941161	     -1.74535567	     -1.43104878	    -10.75536443	      4.34644113	      0.55267207	      0.14604498	    -13.78379211	     -0.84682255	     35.51979779	     44.30003911	      0.00000000	      0.00000000	     11.38921128	    -17.59358809	     -9.02316358	     69.15995636	     44.64847822	      0.00000000	      0.00000000
